<svg width="48" height="48" viewBox="0 0 48 48" fill="none" xmlns="http://www.w3.org/2000/svg">
<g clip-path="url(#clip0_218_48)">
<path d="M0.600097 25.4265L17.6 42.4441C18.3999 43.2449 19.5999 43.2449 20.3999 42.4441C21.1999 41.6432 21.1999 40.442 20.3999 39.6412L6.80005 26.0271L38.9998 26.0271C40.1998 26.0271 40.9998 25.2263 40.9998 24.025C40.9998 22.8238 40.1998 22.023 38.9998 22.023L6.80005 22.023L25.3999 3.40372C26.1999 2.60289 26.1999 1.40165 25.3999 0.600822C24.9999 0.200408 24.3999 0.000202581 23.9999 0.000202533C23.5999 0.000202485 22.9999 0.200408 22.5999 0.600821L0.600098 22.6236C-0.199896 23.4244 -0.199896 24.6256 0.600097 25.4265Z" fill="#181B1E"/>
<path d="M23.9998 44.0459C23.3998 44.0459 22.9998 44.2461 22.5998 44.6465C22.1998 45.0469 21.9998 45.4474 21.9998 46.048C21.9998 46.6486 22.1998 47.049 22.5998 47.4494C22.7998 47.6496 22.9998 47.8498 23.1998 47.8498C23.5998 48.0501 24.1998 48.0501 24.7998 47.8498C24.9998 47.6496 25.1998 47.6496 25.3998 47.4494C25.7998 47.049 25.9998 46.6486 25.9998 46.048C25.9998 45.4474 25.7998 45.0469 25.3998 44.6465C24.9998 44.2461 24.5998 44.0459 23.9998 44.0459Z" fill="#181B1E"/>
<path d="M44.1995 24.8263C44.1995 25.0265 44.3995 25.0265 44.3995 25.2267C44.3995 25.4269 44.5995 25.4269 44.5995 25.4269C44.5995 25.4269 44.7995 25.6271 44.9995 25.6271C45.1995 25.6271 45.1995 25.8273 45.3995 25.8273C45.9995 26.2277 46.7995 26.0275 47.3995 25.4269L47.5995 25.2267C47.5995 25.0265 47.7995 25.0265 47.7995 24.8263C47.7995 24.6261 47.7995 24.6261 47.9995 24.4259C47.9995 24.2257 47.9995 24.2257 47.9995 24.0255C47.9995 23.4248 47.7995 23.0244 47.3995 22.624C46.9995 22.2236 46.5995 22.0234 45.9995 22.0234C45.7995 22.0234 45.3995 22.0234 45.1995 22.2236C44.9995 22.4238 44.7995 22.4238 44.5995 22.624C44.1995 23.0244 43.9995 23.4248 43.9995 24.0255C43.9995 24.2257 43.9995 24.2257 43.9995 24.4259C43.9995 24.6261 44.1995 24.6261 44.1995 24.8263Z" fill="#181B1E"/>
</g>
<defs>
<clipPath id="clip0_218_48">
<rect width="48" height="48" fill="white"/>
</clipPath>
</defs>
</svg>
