<svg width="24" height="24" viewBox="0 0 24 24" fill="none" xmlns="http://www.w3.org/2000/svg">
<g clip-path="url(#clip0_168_23)">
<path fill-rule="evenodd" clip-rule="evenodd" d="M12.0099 0C5.36875 0 0 5.40833 0 12.0992C0 17.4475 3.43995 21.9748 8.21206 23.5771C8.80868 23.6976 9.02718 23.3167 9.02718 22.9965C9.02718 22.716 9.00756 21.7545 9.00756 20.7527C5.6667 21.474 4.97099 19.3105 4.97099 19.3105C4.43409 17.9082 3.63857 17.5478 3.63857 17.5478C2.54511 16.8066 3.71822 16.8066 3.71822 16.8066C4.93116 16.8867 5.56763 18.0486 5.56763 18.0486C6.64118 19.8913 8.37111 19.3706 9.067 19.0501C9.16642 18.2688 9.48472 17.7279 9.82279 17.4276C7.15817 17.1471 4.35469 16.1056 4.35469 11.458C4.35469 10.1359 4.8316 9.05432 5.58729 8.21303C5.46806 7.91263 5.0504 6.67043 5.70676 5.00786C5.70676 5.00786 6.72083 4.6873 9.00726 6.24982C9.98622 5.98496 10.9959 5.85024 12.0099 5.8491C13.024 5.8491 14.0577 5.98948 15.0123 6.24982C17.299 4.6873 18.3131 5.00786 18.3131 5.00786C18.9694 6.67043 18.5516 7.91263 18.4322 8.21303C19.208 9.05432 19.6652 10.1359 19.6652 11.458C19.6652 16.1056 16.8617 17.127 14.1772 17.4276C14.6148 17.8082 14.9924 18.5292 14.9924 19.6711C14.9924 21.2936 14.9728 22.5957 14.9728 22.9962C14.9728 23.3167 15.1915 23.6976 15.7879 23.5774C20.5599 21.9745 23.9999 17.4475 23.9999 12.0992C24.0196 5.40833 18.6312 0 12.0099 0Z" fill="#EDF4FF"/>
</g>
<defs>
<clipPath id="clip0_168_23">
<rect width="24" height="24" fill="white"/>
</clipPath>
</defs>
</svg>
