<svg width="24" height="24" viewBox="0 0 24 24" fill="none" xmlns="http://www.w3.org/2000/svg">
<g clip-path="url(#clip0_273_2)">
<path fill-rule="evenodd" clip-rule="evenodd" d="M12.0066 4C7.57917 4 4 7.60555 4 12.0661C4 15.6317 6.2933 18.6498 9.47471 19.718C9.87246 19.7984 10.0181 19.5445 10.0181 19.331C10.0181 19.144 10.005 18.503 10.005 17.8351C7.7778 18.316 7.31399 16.8736 7.31399 16.8736C6.95606 15.9388 6.42571 15.6986 6.42571 15.6986C5.69674 15.2044 6.47881 15.2044 6.47881 15.2044C7.28744 15.2578 7.71175 16.0324 7.71175 16.0324C8.42745 17.2609 9.58074 16.9138 10.0447 16.7001C10.1109 16.1792 10.3231 15.8186 10.5485 15.6184C8.77211 15.4314 6.90312 14.737 6.90312 11.6387C6.90312 10.7573 7.22107 10.0362 7.72486 9.47535C7.64538 9.27509 7.36693 8.44695 7.80451 7.33857C7.80451 7.33857 8.48055 7.12487 10.0048 8.16654C10.6575 7.98998 11.3306 7.90016 12.0066 7.8994C12.6827 7.8994 13.3718 7.99298 14.0082 8.16654C15.5327 7.12487 16.2087 7.33857 16.2087 7.33857C16.6463 8.44695 16.3677 9.27509 16.2882 9.47535C16.8053 10.0362 17.1101 10.7573 17.1101 11.6387C17.1101 14.737 15.2411 15.418 13.4514 15.6184C13.7432 15.8721 13.9949 16.3528 13.9949 17.1141C13.9949 18.1957 13.9818 19.0638 13.9818 19.3308C13.9818 19.5445 14.1277 19.7984 14.5252 19.7182C17.7066 18.6496 20 15.6317 20 12.0661C20.013 7.60555 16.4208 4 12.0066 4Z" fill="#EDF4FF"/>
</g>
<defs>
<clipPath id="clip0_273_2">
<rect x="4" y="4" width="16" height="16" fill="white"/>
</clipPath>
</defs>
</svg>
