<svg width="24" height="24" viewBox="0 0 24 24" fill="none" xmlns="http://www.w3.org/2000/svg">
<path d="M17.4929 6.14838L9.47487 6.1442C9.09755 6.14401 8.81471 6.42685 8.81491 6.80417C8.8151 7.18149 9.09824 7.46463 9.47556 7.46482L15.89 7.46817L8.30039 15.0578C8.01755 15.3406 8.01775 15.7179 8.30088 16.0011C8.58402 16.2842 8.96134 16.2844 9.24418 16.0016L16.8338 8.41196L16.8384 17.1847C16.8386 17.562 17.1217 17.8451 17.499 17.8453C17.6877 17.8454 17.8763 17.7512 17.9706 17.6569C18.0649 17.5626 18.1591 17.374 18.159 17.1853L18.1536 6.80904C18.1534 6.43172 17.8702 6.14858 17.4929 6.14838Z" fill="#26282D"/>
<path d="M7.58919 7.27504C7.73061 7.13362 7.7777 6.99215 7.7776 6.80349C7.77751 6.61483 7.73027 6.47331 7.5887 6.33174C7.44713 6.19017 7.30561 6.14293 7.11695 6.14284C7.02262 6.14279 6.92829 6.14274 6.88115 6.18988C6.73968 6.23697 6.59826 6.37839 6.50403 6.567C6.50408 6.66133 6.45693 6.70847 6.45698 6.8028C6.45708 6.99146 6.50432 7.13298 6.64589 7.27455C6.78746 7.41612 6.92898 7.46336 7.11764 7.46346C7.3063 7.46356 7.44777 7.41646 7.58919 7.27504Z" fill="#26282D"/>
<path d="M7.35796 16.5666C7.31077 16.5194 7.26363 16.5666 7.21644 16.5194C7.16925 16.4722 7.12211 16.5193 7.12211 16.5193C7.12211 16.5193 7.02778 16.5193 6.98064 16.5664C6.9335 16.6136 6.88631 16.5664 6.83917 16.6135C6.60337 16.6606 6.462 16.8963 6.46215 17.1793L6.4622 17.2736C6.50939 17.3208 6.46225 17.368 6.50944 17.4152C6.55663 17.4623 6.55663 17.4623 6.55667 17.5567C6.60386 17.6039 6.60386 17.6039 6.65105 17.6511C6.79262 17.7926 6.93414 17.8399 7.1228 17.84C7.31146 17.8401 7.45293 17.793 7.59435 17.6515C7.6415 17.6044 7.73578 17.5101 7.73573 17.4158C7.73568 17.3215 7.78282 17.2743 7.78277 17.18C7.78267 16.9913 7.73543 16.8498 7.59386 16.7082C7.54667 16.6611 7.54667 16.6611 7.49948 16.6139C7.45229 16.5667 7.40515 16.6138 7.35796 16.5666Z" fill="#26282D"/>
</svg>
