<svg width="24" height="24" viewBox="0 0 24 24" fill="none" xmlns="http://www.w3.org/2000/svg">
<path fill-rule="evenodd" clip-rule="evenodd" d="M1 2.59371C1 1.71376 1.73142 1 2.63372 1H21.474C22.3763 1 23.1077 1.71376 23.1077 2.59371V21.6543C23.1077 22.5345 22.3763 23.248 21.474 23.248H2.63372C1.73142 23.248 1 22.5345 1 21.6543V2.59371ZM7.70153 19.6239V9.57766H4.36236V19.6239H7.70153ZM6.03193 8.20602C7.19637 8.20602 7.92113 7.43458 7.92113 6.47051C7.89943 5.48473 7.19637 4.7347 6.05402 4.7347C4.91179 4.7347 4.16496 5.48473 4.16496 6.47051C4.16496 7.43458 4.88958 8.20602 6.01017 8.20602H6.03193ZM12.8884 19.6239H9.54921C9.54921 19.6239 9.59312 10.5203 9.5493 9.57766H12.8884V11C12.8809 11.0116 12.8735 11.0232 12.8661 11.0346H12.8884V11C13.3322 10.3155 14.1264 9.34192 15.8977 9.34192C18.0946 9.34192 19.742 10.7778 19.742 13.8635V19.6239H16.4031V14.2494C16.4031 12.8988 15.9198 11.9776 14.7115 11.9776C13.7891 11.9776 13.2396 12.5989 12.9982 13.1988C12.9101 13.4134 12.8884 13.7134 12.8884 14.0136V19.6239Z" fill="#EDF4FF"/>
</svg>
