<svg width="300" height="277" viewBox="0 0 300 277" fill="none" xmlns="http://www.w3.org/2000/svg">
<path fill-rule="evenodd" clip-rule="evenodd" d="M184.615 34.6154H242.308C274.122 34.6154 300 60.4939 300 92.3077V184.615C300 216.429 274.122 242.308 242.308 242.308H216.923V265.385C216.923 271.758 211.758 276.923 205.385 276.923C199.011 276.923 193.846 271.758 193.846 265.385V242.308H106.154V265.385C106.154 271.758 100.989 276.923 94.6154 276.923C88.2415 276.923 83.0769 271.758 83.0769 265.385V242.308H57.6923C25.8785 242.308 0 216.429 0 184.615V92.3077C0 60.4939 25.8785 34.6154 57.6923 34.6154H88.0015H161.538C161.538 28.2508 156.365 23.0769 150 23.0769H92.3077C85.9338 23.0769 80.7692 17.9123 80.7692 11.5385C80.7692 5.16462 85.9338 0 92.3077 0H150C169.085 0 184.615 15.5308 184.615 34.6154ZM242.308 219.231C261.392 219.231 276.923 203.7 276.923 184.615V92.3077C276.923 73.2231 261.392 57.6923 242.308 57.6923H184.615H88.0015H57.6923C38.6077 57.6923 23.0769 73.2231 23.0769 92.3077V184.615C23.0769 203.7 38.6077 219.231 57.6923 219.231H242.308ZM46.3805 13.7908C46.3066 13.4215 46.2512 13.0431 46.2097 12.6738C46.1912 12.4846 46.1774 12.2954 46.1681 12.1062C46.1589 11.9169 46.1543 11.7231 46.1543 11.5385C46.1543 11.3492 46.1589 11.1554 46.1681 10.9662C46.1774 10.7815 46.1912 10.5877 46.2097 10.4031C46.2512 10.0292 46.3066 9.65077 46.3805 9.28154C46.4543 8.91692 46.5466 8.54769 46.6574 8.18769C46.7681 7.82769 46.8928 7.47231 47.0405 7.12154C47.1835 6.77539 47.3451 6.43385 47.5205 6.10154C47.6958 5.76923 47.8897 5.44154 48.0974 5.13231C48.3097 4.81846 48.5358 4.50923 48.7712 4.21846C48.8912 4.07539 49.0158 3.92769 49.1404 3.78923L49.1408 3.78889C49.2699 3.65054 49.399 3.5122 49.5328 3.37846C49.6666 3.24462 49.8051 3.11077 49.9481 2.98615C50.0866 2.86154 50.2297 2.73692 50.3774 2.61692C50.6681 2.37692 50.9728 2.15077 51.2866 1.94308C51.6005 1.73538 51.9281 1.54154 52.2558 1.36615C52.5881 1.18615 52.9343 1.02462 53.2805 0.881539C53.6266 0.738462 53.982 0.609231 54.342 0.503077C54.702 0.392308 55.0712 0.3 55.4358 0.226154C55.8097 0.147692 56.1835 0.0923077 56.5574 0.0553846C56.7466 0.0369231 56.9358 0.0230769 57.1251 0.0138462C57.5035 -0.00461538 57.882 -0.00461538 58.2605 0.0138462C58.4497 0.0230769 58.6389 0.0369231 58.8281 0.0553846C59.202 0.0923077 59.5758 0.147692 59.9497 0.226154C60.3143 0.3 60.6835 0.392308 61.0435 0.503077C61.4035 0.609231 61.7589 0.738462 62.1051 0.881539C62.4512 1.02462 62.7974 1.18615 63.1251 1.36615C63.4574 1.54154 63.7851 1.73538 64.0989 1.94308C64.4128 2.15077 64.7174 2.37692 65.0081 2.61692C65.1558 2.73692 65.2989 2.86154 65.442 2.98615C65.5804 3.11077 65.7189 3.24462 65.8528 3.37846C65.9866 3.51231 66.1158 3.65077 66.2451 3.78923C66.3697 3.92769 66.4943 4.07539 66.6143 4.21846C66.8497 4.50923 67.0758 4.81846 67.2881 5.13231C67.4958 5.44154 67.6897 5.76923 67.8651 6.10154C68.0405 6.43385 68.202 6.77539 68.3451 7.12154C68.4928 7.47231 68.6174 7.82769 68.7281 8.18769C68.8389 8.54769 68.9312 8.91692 69.0051 9.28154C69.0789 9.65077 69.1343 10.0292 69.1758 10.4031C69.1943 10.5877 69.2081 10.7815 69.2174 10.9662C69.2266 11.1554 69.2312 11.3492 69.2312 11.5385C69.2312 11.7231 69.2266 11.9169 69.2174 12.1062C69.2081 12.2954 69.1943 12.4846 69.1758 12.6738C69.1343 13.0431 69.0789 13.4215 69.0051 13.7908C68.9312 14.16 68.8389 14.5292 68.7281 14.8892C68.6174 15.2446 68.4928 15.6046 68.3451 15.9508C68.202 16.2969 68.0405 16.6385 67.8651 16.9708C67.6897 17.3031 67.4958 17.6308 67.2881 17.94C67.0758 18.2538 66.8497 18.5631 66.6143 18.8538C66.4943 19.0015 66.3697 19.1446 66.2451 19.2831C66.1158 19.4262 65.9866 19.5646 65.8528 19.6938C65.7189 19.8277 65.5804 19.9615 65.442 20.0862C65.2989 20.2154 65.1558 20.34 65.0081 20.46C64.7174 20.6954 64.4128 20.9215 64.0989 21.1292C63.7851 21.3369 63.4574 21.5308 63.1251 21.7108C62.7974 21.8862 62.4512 22.0477 62.1051 22.1908C61.7589 22.3338 61.4035 22.4631 61.0435 22.5738C60.6835 22.68 60.3143 22.7769 59.9497 22.8508C59.5758 22.9246 59.202 22.98 58.8281 23.0169C58.6389 23.0354 58.4497 23.0492 58.2605 23.0585C58.0712 23.0723 57.882 23.0769 57.6928 23.0769C57.5035 23.0769 57.3143 23.0723 57.1251 23.0585C56.9358 23.0492 56.7466 23.0354 56.5574 23.0169C56.1835 22.98 55.8097 22.9246 55.4358 22.8508C55.0712 22.7769 54.702 22.68 54.342 22.5738C53.982 22.4631 53.6266 22.3338 53.2805 22.1908C52.9343 22.0477 52.5881 21.8862 52.2558 21.7108C51.9281 21.5308 51.6005 21.3369 51.2866 21.1292C50.9728 20.9215 50.6681 20.6954 50.3774 20.46C50.2297 20.34 50.0866 20.2154 49.9481 20.0862C49.8051 19.9615 49.6666 19.8277 49.5328 19.6938C49.3989 19.5646 49.2697 19.4262 49.1404 19.2831C49.0158 19.1446 48.8912 19.0015 48.7712 18.8538C48.5358 18.5631 48.3097 18.2538 48.0974 17.94C47.8897 17.6308 47.6958 17.3031 47.5205 16.9708C47.3451 16.6385 47.1835 16.2969 47.0405 15.9508C46.8928 15.6046 46.7681 15.2446 46.6574 14.8892C46.5466 14.5292 46.4543 14.16 46.3805 13.7908ZM222.723 93.0015H188.048C181.674 93.0015 176.509 98.1661 176.509 104.54C176.509 110.914 181.674 116.078 188.048 116.078H222.723C229.097 116.078 234.262 110.914 234.262 104.54C234.262 98.1661 229.097 93.0015 222.723 93.0015ZM77.2733 93.0015H111.949C118.323 93.0015 123.487 98.1661 123.487 104.54C123.487 110.914 118.323 116.078 111.949 116.078H77.2733C70.8995 116.078 65.7349 110.914 65.7349 104.54C65.7349 98.1661 70.8995 93.0015 77.2733 93.0015ZM222.723 128.251H188.048C181.674 128.251 176.509 133.416 176.509 139.79C176.509 146.164 181.674 151.328 188.048 151.328H222.723C229.097 151.328 234.262 146.164 234.262 139.79C234.262 133.416 229.097 128.251 222.723 128.251ZM188.048 163.701H222.723C229.097 163.701 234.262 168.865 234.262 175.239C234.262 181.613 229.097 186.778 222.723 186.778H188.048C181.674 186.778 176.509 181.613 176.509 175.239C176.509 168.865 181.674 163.701 188.048 163.701ZM111.949 128.251H77.2733C70.8995 128.251 65.7349 133.416 65.7349 139.79C65.7349 146.164 70.8995 151.328 77.2733 151.328H111.949C118.323 151.328 123.487 146.164 123.487 139.79C123.487 133.416 118.323 128.251 111.949 128.251ZM77.2733 163.701H111.949C118.323 163.701 123.487 168.865 123.487 175.239C123.487 181.613 118.323 186.778 111.949 186.778H77.2733C70.8995 186.778 65.7349 181.613 65.7349 175.239C65.7349 168.865 70.8995 163.701 77.2733 163.701Z" fill="#EDF4FF"/>
</svg>
