<svg width="24" height="24" viewBox="0 0 24 24" fill="none" xmlns="http://www.w3.org/2000/svg">
<path fill-rule="evenodd" clip-rule="evenodd" d="M23 7.53571V7.85V8.08571V16.0214C23 18.2214 21.2714 19.95 19.0714 19.95H4.92857C2.72857 19.95 1 19.0857 1 17.5143C1 17.0429 1.31429 16.7286 1.78571 16.7286C2.25714 16.7286 2.57143 17.0429 2.57143 17.5143C2.57143 18.3 3.59286 18.3786 4.92857 18.3786H19.0714C20.4071 18.3786 21.4286 17.3571 21.4286 16.0214V11.3071C21.2714 11.4643 21.1143 11.5429 20.9571 11.6214L13.8857 15.55C13.3357 15.8643 12.6286 16.0214 12 16.0214C11.3714 16.0214 10.7429 15.8643 10.1143 15.55L3.04286 11.6214C2.96429 11.5821 2.88571 11.5232 2.80714 11.4643C2.72857 11.4054 2.65 11.3464 2.57143 11.3071C2.57143 11.7786 2.25714 12.0929 1.78571 12.0929C1.31429 12.0929 1 11.7786 1 11.3071V8.16429V7.92857V7.61429C1 7.53571 1.01964 7.45714 1.03929 7.37857C1.05893 7.3 1.07857 7.22143 1.07857 7.14286C1.15714 7.06429 1.15714 7.06429 1.15714 6.98571L1.39286 6.51429C1.47143 6.27857 1.55 6.04286 1.70714 5.88571C1.78571 5.65 1.94286 5.49286 2.17857 5.25714L2.17857 5.25714C2.29361 5.14211 2.40864 5.06918 2.55451 4.9767C2.60789 4.94286 2.66541 4.90639 2.72857 4.86429C2.72857 4.78571 2.80714 4.78571 2.80714 4.78571C2.96429 4.70714 3.12143 4.62857 3.35714 4.47143H3.43571C3.48491 4.45503 3.53068 4.43863 3.57446 4.42295C3.74045 4.36348 3.87777 4.31429 4.06429 4.31429C4.06429 4.23571 4.14286 4.23571 4.22143 4.23571C4.37857 4.15714 4.61429 4.15714 4.85 4.15714H4.92857H19.0714H19.15C19.3857 4.15714 19.5429 4.15714 19.8571 4C19.8571 4.07857 19.9357 4.07857 20.0143 4.07857C20.1714 4.07857 20.4071 4.15714 20.5643 4.23571C20.6036 4.23571 20.6232 4.25536 20.6429 4.275C20.6625 4.29464 20.6821 4.31429 20.7214 4.31429C20.8 4.35357 20.8982 4.4125 20.9964 4.47143C21.0946 4.53036 21.1929 4.58929 21.2714 4.62857C21.2714 4.70714 21.35 4.70714 21.35 4.70714C21.5857 4.86429 21.7429 5.02143 21.9 5.17857C22.2143 5.49286 22.5286 5.88571 22.6857 6.35714C22.725 6.43571 22.7446 6.51429 22.7643 6.59286C22.7839 6.67143 22.8036 6.75 22.8429 6.82857C22.9214 6.90714 22.9214 6.90714 22.9214 6.98571V7.06429C22.9214 7.14286 22.9411 7.22143 22.9607 7.3C22.9804 7.37857 23 7.45714 23 7.53571ZM13.1786 14.0571L20.25 10.1286C21.1929 9.57857 21.5071 8.63571 21.4286 7.85V7.77143C21.4286 7.67938 21.4016 7.61429 21.3793 7.56036C21.3635 7.52223 21.35 7.48969 21.35 7.45714C21.3107 7.37857 21.2714 7.28036 21.2321 7.18214C21.1929 7.08393 21.1536 6.98571 21.1143 6.90714C21.0357 6.90714 21.0357 6.82857 21.0357 6.82857C21.0357 6.78929 21.0161 6.76964 20.9964 6.75C20.9768 6.73036 20.9571 6.71071 20.9571 6.67143L20.7214 6.43571C20.3286 5.96429 19.7786 5.72857 19.15 5.72857H19.0714H4.92857H4.85C4.22143 5.72857 3.67143 6.04286 3.27857 6.35714L3.2 6.43571C3.2 6.51429 3.12143 6.59286 3.04286 6.67143C3.01285 6.70144 2.98283 6.71999 2.9572 6.73583C2.91573 6.76146 2.88571 6.78001 2.88571 6.82857V6.90714C2.86932 6.95634 2.85292 7.00211 2.83723 7.04589C2.77777 7.21187 2.72857 7.3492 2.72857 7.53571C2.65 7.61429 2.65 7.77143 2.65 7.85C2.57143 8.55714 2.80714 9.57857 3.82857 10.1286L10.9 14.0571C11.6071 14.45 12.4714 14.45 13.1786 14.0571ZM1.78571 15.1571C2.21965 15.1571 2.57143 14.8054 2.57143 14.3714C2.57143 13.9375 2.21965 13.5857 1.78571 13.5857C1.35178 13.5857 1 13.9375 1 14.3714C1 14.8054 1.35178 15.1571 1.78571 15.1571Z" fill="#EDF4FF"/>
</svg>
