<svg width="32" height="32" viewBox="0 0 32 32" fill="none" xmlns="http://www.w3.org/2000/svg">
<rect width="32" height="32" rx="16" fill="#6FFFD4"/>
<path d="M20.9231 10.8462H17.8462C17.8462 9.82806 17.0181 9 16 9H12.9231C12.5831 9 12.3077 9.27545 12.3077 9.61538C12.3077 9.95532 12.5831 10.2308 12.9231 10.2308H16C16.3394 10.2308 16.6154 10.5067 16.6154 10.8462H12.6934H11.0769C9.38043 10.8462 8 12.2266 8 13.9231V18.8462C8 20.5426 9.38043 21.9231 11.0769 21.9231H12.4308V23.1538C12.4308 23.4938 12.7062 23.7692 13.0462 23.7692C13.3861 23.7692 13.6615 23.4938 13.6615 23.1538V21.9231H18.3385V23.1538C18.3385 23.4938 18.6139 23.7692 18.9538 23.7692C19.2938 23.7692 19.5692 23.4938 19.5692 23.1538V21.9231H20.9231C22.6196 21.9231 24 20.5426 24 18.8462V13.9231C24 12.2266 22.6196 10.8462 20.9231 10.8462ZM22.7692 18.8462C22.7692 19.8642 21.9412 20.6923 20.9231 20.6923H11.0769C10.0588 20.6923 9.23077 19.8642 9.23077 18.8462V13.9231C9.23077 12.905 10.0588 12.0769 11.0769 12.0769H12.6934H17.8462H20.9231C21.9412 12.0769 22.7692 12.905 22.7692 13.9231V18.8462Z" fill="#181B1E"/>
<path d="M10.4645 9.67594C10.4665 9.69588 10.4697 9.71606 10.4736 9.73575C10.4775 9.7552 10.4825 9.77489 10.4884 9.79409C10.4943 9.81329 10.5009 9.83225 10.5086 9.85071C10.5162 9.86942 10.5251 9.88763 10.5344 9.90535C10.5438 9.92308 10.5541 9.94031 10.5652 9.95705C10.5763 9.97378 10.5883 9.99003 10.6011 10.0055C10.6075 10.0134 10.6142 10.021 10.6208 10.0287C10.6275 10.0361 10.6346 10.0434 10.6417 10.0506C10.6489 10.0577 10.6563 10.0646 10.6636 10.0715C10.6713 10.0782 10.6789 10.0848 10.6868 10.0912C10.7023 10.104 10.7185 10.1158 10.7353 10.1271C10.752 10.1382 10.7692 10.1486 10.787 10.1579C10.8047 10.1673 10.8229 10.1761 10.8416 10.1838C10.8601 10.1914 10.879 10.1983 10.8982 10.2039C10.9174 10.2098 10.9371 10.2148 10.9566 10.2187C10.9763 10.2226 10.9964 10.2258 11.0164 10.2278C11.0265 10.2288 11.0366 10.2295 11.0464 10.23C11.0565 10.2305 11.0668 10.2308 11.0769 10.2308C11.087 10.2308 11.0971 10.2305 11.1072 10.23C11.1173 10.2295 11.1274 10.2288 11.1375 10.2278C11.1572 10.2258 11.1774 10.2226 11.1971 10.2187C11.2167 10.2148 11.2364 10.2098 11.2556 10.2039C11.2746 10.1983 11.2938 10.1914 11.3123 10.1838C11.3307 10.1761 11.3489 10.1673 11.3667 10.1579C11.3844 10.1486 11.4019 10.1382 11.4186 10.1271C11.4353 10.1158 11.4516 10.104 11.4671 10.0912C11.475 10.0848 11.4826 10.0782 11.49 10.0715C11.4976 10.0646 11.505 10.0577 11.5119 10.0506C11.519 10.0434 11.5262 10.0361 11.5328 10.0287C11.5397 10.021 11.5463 10.0134 11.5527 10.0055C11.5653 9.99003 11.5774 9.97378 11.5884 9.95705C11.5995 9.94031 11.6099 9.92308 11.6195 9.90535C11.6288 9.88763 11.6374 9.86942 11.6451 9.85071C11.6527 9.83225 11.6596 9.81329 11.6655 9.79409C11.6714 9.77489 11.6763 9.7552 11.6803 9.73575C11.6842 9.71606 11.6871 9.69588 11.6894 9.67594C11.6903 9.66585 11.6911 9.65575 11.6916 9.64566C11.6921 9.63582 11.6923 9.62548 11.6923 9.61538C11.6923 9.60529 11.6921 9.5952 11.6916 9.58511C11.6911 9.57502 11.6903 9.56492 11.6894 9.55483C11.6871 9.53489 11.6842 9.51495 11.6803 9.49526C11.6763 9.47557 11.6714 9.45588 11.6655 9.43668C11.6596 9.41772 11.6527 9.39852 11.6451 9.38006C11.6374 9.3616 11.6288 9.34338 11.6195 9.32566C11.6099 9.30794 11.5995 9.29046 11.5884 9.27372C11.5774 9.25723 11.5653 9.24074 11.5527 9.22523C11.5463 9.21735 11.5397 9.20972 11.5328 9.20234C11.5262 9.19471 11.519 9.18732 11.5119 9.18018C11.505 9.17329 11.4976 9.16615 11.49 9.15926C11.4826 9.15262 11.475 9.14597 11.4671 9.13957C11.4516 9.12702 11.4353 9.11495 11.4186 9.10388C11.4019 9.0928 11.3844 9.08246 11.3667 9.07286C11.3489 9.06351 11.3307 9.05489 11.3123 9.04726C11.2938 9.03963 11.2746 9.03274 11.2556 9.02683C11.2364 9.02117 11.2167 9.016 11.1971 9.01206C11.1774 9.00812 11.1572 9.00517 11.1375 9.0032C11.1274 9.00222 11.1173 9.00123 11.1072 9.00074C11.087 8.99975 11.0666 8.99975 11.0464 9.00074C11.0366 9.00123 11.0265 9.00222 11.0164 9.0032C10.9964 9.00517 10.9763 9.00812 10.9566 9.01206C10.9371 9.016 10.9174 9.02117 10.8982 9.02683C10.879 9.03274 10.8601 9.03963 10.8414 9.04726C10.8229 9.05489 10.8047 9.06351 10.787 9.07286C10.7692 9.08246 10.752 9.0928 10.7353 9.10388C10.7185 9.11495 10.702 9.12702 10.6865 9.13957C10.6789 9.14597 10.671 9.15262 10.6636 9.15926C10.6563 9.16615 10.6489 9.17329 10.6417 9.18018C10.6346 9.18732 10.6275 9.19471 10.6208 9.20234C10.6142 9.20972 10.6075 9.21735 10.6011 9.22523C10.5883 9.24074 10.5763 9.25723 10.5652 9.27372C10.5541 9.29046 10.5438 9.30794 10.5344 9.32566C10.5251 9.34338 10.5162 9.3616 10.5086 9.38006C10.5009 9.39852 10.4943 9.41772 10.4884 9.43668C10.4825 9.45588 10.4775 9.47557 10.4736 9.49526C10.4697 9.51495 10.4665 9.53489 10.4645 9.55483C10.4635 9.56492 10.4628 9.57502 10.4623 9.58511C10.4618 9.5952 10.4615 9.60529 10.4615 9.61538C10.4615 9.62548 10.4618 9.63582 10.4623 9.64566C10.4628 9.65575 10.4635 9.66585 10.4645 9.67594Z" fill="#181B1E"/>
<path d="M12.7372 14.4727C12.497 14.2324 12.1073 14.2324 11.8668 14.4727C11.6266 14.7129 11.6266 15.1026 11.8668 15.3431L12.9086 16.3848L11.8668 17.4265C11.6266 17.6668 11.6266 18.0564 11.8668 18.2969C11.987 18.417 12.1445 18.4771 12.302 18.4771C12.4596 18.4771 12.6171 18.417 12.7372 18.2969L14.2142 16.82C14.4544 16.5797 14.4544 16.1901 14.2142 15.9496L12.7372 14.4727Z" fill="#181B1E"/>
<path d="M19.6034 14.3206C19.2792 14.2184 18.9336 14.3986 18.8317 14.7228L17.902 17.6767C17.7999 18.0008 17.98 18.3464 18.3042 18.4483C18.3658 18.4678 18.428 18.4769 18.4891 18.4769C18.7508 18.4769 18.9932 18.3088 19.0759 18.0461L20.0056 15.0923C20.1078 14.7683 19.9276 14.4227 19.6034 14.3206Z" fill="#181B1E"/>
</svg>
