<svg width="32" height="32" viewBox="0 0 32 32" fill="none" xmlns="http://www.w3.org/2000/svg">
<rect width="32" height="32" rx="16" fill="#A7C7FF"/>
<path d="M21.5385 10.0769H18.0769C18.0769 8.93185 17.1451 8 16 8H12.5385C12.156 8 11.8462 8.30988 11.8462 8.69231C11.8462 9.07474 12.156 9.38462 12.5385 9.38462H16C16.3819 9.38462 16.6923 9.69505 16.6923 10.0769H12.2801H10.4615C8.55271 10.0769 7 11.6296 7 13.5385V19.0769C7 20.9858 8.55271 22.5385 10.4615 22.5385H11.9846V23.9231C11.9846 24.3055 12.2945 24.6154 12.6769 24.6154C13.0594 24.6154 13.3692 24.3055 13.3692 23.9231V22.5385H18.6308V23.9231C18.6308 24.3055 18.9406 24.6154 19.3231 24.6154C19.7055 24.6154 20.0154 24.3055 20.0154 23.9231V22.5385H21.5385C23.4473 22.5385 25 20.9858 25 19.0769V13.5385C25 11.6296 23.4473 10.0769 21.5385 10.0769ZM23.6154 19.0769C23.6154 20.222 22.6835 21.1538 21.5385 21.1538H10.4615C9.31646 21.1538 8.38462 20.222 8.38462 19.0769V13.5385C8.38462 12.3934 9.31646 11.4615 10.4615 11.4615H12.2801H18.0769H21.5385C22.6835 11.4615 23.6154 12.3934 23.6154 13.5385V19.0769Z" fill="#26282D"/>
<path d="M9.77261 8.76043C9.7751 8.78258 9.77843 8.80529 9.78286 8.82745C9.78729 8.8496 9.79283 8.87175 9.79947 8.89335C9.80612 8.91468 9.81359 8.93628 9.82246 8.95705C9.83104 8.97782 9.84073 8.99831 9.85126 9.01825C9.86178 9.03818 9.87341 9.05785 9.88587 9.0764C9.89861 9.09523 9.91218 9.11378 9.9263 9.13123C9.9335 9.14009 9.94098 9.14868 9.94846 9.15698C9.95621 9.16557 9.96396 9.17388 9.97199 9.18163C9.98003 9.18966 9.98833 9.19769 9.99692 9.20517C10.0052 9.21292 10.0138 9.2204 10.0227 9.2276C10.0401 9.24172 10.0584 9.25529 10.0772 9.26775C10.0961 9.28022 10.1157 9.29185 10.1354 9.30265C10.1553 9.31317 10.1761 9.32286 10.1969 9.33145C10.2176 9.34003 10.2389 9.34778 10.2605 9.35443C10.2821 9.3608 10.3043 9.36662 10.3262 9.37105C10.3486 9.37548 10.371 9.3788 10.3935 9.38102C10.4048 9.38212 10.4162 9.38295 10.4275 9.38351C10.4389 9.38434 10.4502 9.38462 10.4616 9.38462C10.4729 9.38462 10.4843 9.38434 10.4957 9.38351C10.507 9.38295 10.5184 9.38212 10.5297 9.38102C10.5521 9.3788 10.5746 9.37548 10.597 9.37105C10.6189 9.36662 10.641 9.3608 10.6626 9.35443C10.6842 9.34778 10.7056 9.34003 10.7263 9.33145C10.7471 9.32286 10.7679 9.31317 10.7875 9.30265C10.8075 9.29185 10.8271 9.28022 10.846 9.26775C10.8648 9.25529 10.8831 9.24172 10.9005 9.2276C10.9094 9.2204 10.918 9.21292 10.9265 9.20517C10.9349 9.19769 10.9432 9.18966 10.9512 9.18163C10.9592 9.17388 10.967 9.16557 10.9747 9.15698C10.9822 9.14868 10.9897 9.14009 10.9969 9.13123C11.011 9.11378 11.0246 9.09523 11.0373 9.0764C11.0498 9.05785 11.0614 9.03818 11.0719 9.01825C11.0825 8.99831 11.0921 8.97782 11.1007 8.95705C11.1096 8.93628 11.1171 8.91468 11.1237 8.89335C11.1304 8.87175 11.1359 8.8496 11.1403 8.82745C11.1448 8.80529 11.1481 8.78258 11.1506 8.76043C11.1517 8.74908 11.1525 8.73772 11.1531 8.72637C11.1536 8.71502 11.1539 8.70338 11.1539 8.69231C11.1539 8.68095 11.1536 8.66932 11.1531 8.65797C11.1525 8.64689 11.1517 8.63526 11.1506 8.62418C11.1481 8.60175 11.1448 8.57905 11.1403 8.55689C11.1359 8.53502 11.1304 8.51286 11.1237 8.49126C11.1171 8.46966 11.1096 8.44834 11.1007 8.42729C11.0921 8.40652 11.0825 8.38603 11.0719 8.36609C11.0614 8.34615 11.0498 8.32649 11.0373 8.30794C11.0246 8.28911 11.011 8.27055 10.9969 8.25311C10.9897 8.24452 10.9822 8.23566 10.9747 8.22735C10.967 8.21905 10.9592 8.21074 10.9512 8.20271C10.9432 8.19468 10.9349 8.18665 10.9265 8.17917C10.918 8.17169 10.9094 8.16422 10.9005 8.15702C10.8831 8.14262 10.8648 8.12905 10.846 8.11658C10.8271 8.10412 10.8075 8.09249 10.7875 8.08197C10.7679 8.07117 10.7471 8.06148 10.7263 8.05289C10.7056 8.04431 10.6842 8.03655 10.6626 8.03018C10.641 8.02354 10.6189 8.018 10.597 8.01357C10.5746 8.00886 10.5521 8.00554 10.5297 8.00332C10.5184 8.00222 10.507 8.00138 10.4957 8.00083C10.4729 7.99972 10.4502 7.99972 10.4275 8.00083C10.4162 8.00138 10.4048 8.00222 10.3935 8.00332C10.371 8.00554 10.3486 8.00886 10.3262 8.01357C10.3043 8.018 10.2821 8.02354 10.2605 8.03018C10.2389 8.03655 10.2176 8.04431 10.1969 8.05289C10.1761 8.06148 10.1553 8.07117 10.1354 8.08197C10.1157 8.09249 10.0961 8.10412 10.0772 8.11658C10.0584 8.12905 10.0401 8.14262 10.0227 8.15702C10.0138 8.16422 10.0052 8.17169 9.99692 8.17917C9.98833 8.18665 9.98003 8.19468 9.97199 8.20271C9.96396 8.21074 9.95621 8.21905 9.94846 8.22735C9.94098 8.23566 9.9335 8.24452 9.9263 8.25311C9.91218 8.27055 9.89861 8.28911 9.88587 8.30794C9.87341 8.32649 9.86178 8.34615 9.85126 8.36609C9.84073 8.38603 9.83104 8.40652 9.82246 8.42729C9.81359 8.44834 9.80612 8.46966 9.79947 8.49126C9.79283 8.51286 9.78729 8.53502 9.78286 8.55689C9.77843 8.57905 9.7751 8.60175 9.77261 8.62418C9.7715 8.63526 9.77067 8.64689 9.77012 8.65797C9.76956 8.66932 9.76929 8.68095 9.76929 8.69231C9.76929 8.70338 9.76956 8.71502 9.77012 8.72637C9.77067 8.73772 9.7715 8.74908 9.77261 8.76043Z" fill="#26282D"/>
<path d="M20.3634 13.5801H18.2829C17.9005 13.5801 17.5906 13.89 17.5906 14.2724C17.5906 14.6548 17.9005 14.9647 18.2829 14.9647H20.3634C20.7458 14.9647 21.0557 14.6548 21.0557 14.2724C21.0557 13.89 20.7458 13.5801 20.3634 13.5801Z" fill="#26282D"/>
<path d="M13.7169 13.5801H11.6364C11.254 13.5801 10.9441 13.89 10.9441 14.2724C10.9441 14.6548 11.254 14.9647 11.6364 14.9647H13.7169C14.0994 14.9647 14.4092 14.6548 14.4092 14.2724C14.4092 13.89 14.0994 13.5801 13.7169 13.5801Z" fill="#26282D"/>
<path d="M20.3634 15.6951H18.2829C17.9005 15.6951 17.5906 16.0049 17.5906 16.3874C17.5906 16.7698 17.9005 17.0797 18.2829 17.0797H20.3634C20.7458 17.0797 21.0557 16.7698 21.0557 16.3874C21.0557 16.0049 20.7458 15.6951 20.3634 15.6951Z" fill="#26282D"/>
<path d="M20.3634 17.822H18.2829C17.9005 17.822 17.5906 18.1319 17.5906 18.5143C17.5906 18.8968 17.9005 19.2066 18.2829 19.2066H20.3634C20.7458 19.2066 21.0557 18.8968 21.0557 18.5143C21.0557 18.1319 20.7458 17.822 20.3634 17.822Z" fill="#26282D"/>
<path d="M13.7169 15.6951H11.6364C11.254 15.6951 10.9441 16.0049 10.9441 16.3874C10.9441 16.7698 11.254 17.0797 11.6364 17.0797H13.7169C14.0994 17.0797 14.4092 16.7698 14.4092 16.3874C14.4092 16.0049 14.0994 15.6951 13.7169 15.6951Z" fill="#26282D"/>
<path d="M13.7169 17.822H11.6364C11.254 17.822 10.9441 18.1319 10.9441 18.5143C10.9441 18.8968 11.254 19.2066 11.6364 19.2066H13.7169C14.0994 19.2066 14.4092 18.8968 14.4092 18.5143C14.4092 18.1319 14.0994 17.822 13.7169 17.822Z" fill="#26282D"/>
</svg>
